<svg width="173" height="24" viewBox="0 0 173 24" fill="none" xmlns="http://www.w3.org/2000/svg">
<path fill-rule="evenodd" clip-rule="evenodd" d="M3.0738 0.105663C2.85809 0.158669 2.45105 0.316409 2.16927 0.456338C1.73669 0.671084 1.58193 0.786163 1.17494 1.19598C0.628347 1.74642 0.406615 2.09064 0.167072 2.76058C0.00906552 3.2025 0 3.26958 0 4.00101C0 4.73244 0.00906552 4.79952 0.167072 5.24144C0.406029 5.90973 0.627494 6.25379 1.1751 6.80722C1.6014 7.23804 1.7217 7.32555 2.21497 7.56323C2.52176 7.7111 2.94549 7.86996 3.15656 7.9163C3.69713 8.0349 4.446 8.02509 4.96396 7.89263C6.05667 7.6132 6.7848 7.07801 7.46796 6.05211C7.80248 5.54978 7.92785 5.40798 8.19555 5.22923C8.74647 4.86133 8.93396 4.82757 10.4251 4.82757C11.9163 4.82757 12.1038 4.86133 12.6547 5.22923C12.9224 5.40798 13.0478 5.54978 13.3823 6.05211C13.9146 6.85132 14.3949 7.28428 15.1323 7.6293C17.1065 8.55308 19.493 7.69948 20.4307 5.73413C20.9571 4.63096 20.9571 3.37106 20.4307 2.2679C19.493 0.302544 17.1065 -0.551055 15.1323 0.372722C14.3959 0.717319 13.9145 1.15076 13.3848 1.94618C12.94 2.61415 12.6754 2.84228 12.1049 3.04993C11.8239 3.15216 11.6472 3.16917 10.6543 3.18965C8.64755 3.23097 8.2196 3.06321 7.46407 1.93871C6.78053 0.921453 6.05049 0.38728 4.96396 0.109395C4.42547 -0.0283472 3.62589 -0.0298937 3.0738 0.105663ZM17.6242 4.00101V4.80091H16.8243H16.0244V4.00101V3.20111H16.8243H17.6242V4.00101ZM9.46526 8.10967C6.99336 8.74793 5.72552 11.4419 6.81876 13.7331C7.75651 15.6985 10.143 16.5521 12.1172 15.6283C12.8545 15.2833 13.3349 14.8503 13.8672 14.0511C14.2017 13.5488 14.327 13.407 14.5947 13.2282C15.1457 12.8603 15.3332 12.8266 16.8243 12.8266C18.3155 12.8266 18.503 12.8603 19.0539 13.2282C19.3216 13.407 19.447 13.5488 19.7815 14.0511C20.4647 15.077 21.1928 15.6122 22.2855 15.8916C22.8035 16.0241 23.5523 16.0339 24.0929 15.9153C24.304 15.869 24.7277 15.7101 25.0345 15.5622C25.5278 15.3245 25.6481 15.237 26.0744 14.8062C26.622 14.2528 26.8434 13.9087 27.0824 13.2404C27.2404 12.7985 27.2495 12.7314 27.2495 12C27.2495 11.2686 27.2404 11.2015 27.0824 10.7596C26.8426 10.0889 26.6211 9.7453 26.0716 9.19209C25.6441 8.76169 25.5209 8.67215 25.0317 8.4364C24.7264 8.28932 24.304 8.13105 24.0929 8.08471C23.5523 7.96611 22.8035 7.97592 22.2855 8.10839C21.1942 8.3875 20.4646 8.92322 19.784 9.94517C19.3392 10.6131 19.0746 10.8413 18.5041 11.0489C18.2231 11.1511 18.0464 11.1682 17.0535 11.1886C15.0467 11.23 14.6188 11.0622 13.8633 9.9377C13.1797 8.92044 12.4497 8.38627 11.3632 8.10839C10.8082 7.96648 10.0178 7.96702 9.46526 8.10967ZM11.225 12V12.7999H10.4251H9.62524V12V11.2001H10.4251H11.225V12ZM3.0738 16.1036C2.85809 16.1567 2.45105 16.3144 2.16927 16.4543C1.73669 16.6691 1.58193 16.7841 1.17494 17.194C0.628347 17.7444 0.406615 18.0886 0.167072 18.7586C0.00906552 19.2005 0 19.2676 0 19.999C0 20.7304 0.00906552 20.7975 0.167072 21.2394C0.406029 21.9077 0.627494 22.2518 1.1751 22.8052C1.6014 23.236 1.7217 23.3235 2.21497 23.5612C2.52176 23.7091 2.94549 23.8679 3.15656 23.9143C3.69713 24.0329 4.446 24.0231 4.96396 23.8906C6.05667 23.6112 6.7848 23.076 7.46796 22.0501C7.80248 21.5478 7.92785 21.406 8.19555 21.2272C8.74647 20.8593 8.93396 20.8256 10.4251 20.8256C11.9163 20.8256 12.1038 20.8593 12.6547 21.2272C12.9224 21.406 13.0478 21.5478 13.3823 22.0501C13.9146 22.8493 14.3949 23.2823 15.1323 23.6273C17.1065 24.5511 19.493 23.6975 20.4307 21.7321C20.9571 20.6289 20.9571 19.369 20.4307 18.2659C19.493 16.3005 17.1065 15.4469 15.1323 16.3707C14.3959 16.7153 13.9145 17.1487 13.3848 17.9442C12.94 18.6121 12.6754 18.8403 12.1049 19.0479C11.8239 19.1501 11.6472 19.1671 10.6543 19.1876C8.64755 19.229 8.2196 19.0612 7.46407 17.9367C6.78053 16.9194 6.05049 16.3853 4.96396 16.1074C4.42547 15.9696 3.62589 15.9681 3.0738 16.1036ZM17.6242 19.999V20.7989H16.8243H16.0244V19.999V19.1991H16.8243H17.6242V19.999Z" fill="white"/>
<path d="M33.8741 4.64745H42.9747V7.21327H36.5802V10.7012H42.3332V13.267H36.5802V19H33.8741V4.64745ZM52.4416 17.7171H52.2812C51.9738 18.2115 51.5596 18.6058 51.0384 18.8998C50.5172 19.1804 49.9225 19.3207 49.2543 19.3207C48.0115 19.3207 47.0827 18.9399 46.468 18.1781C45.8666 17.4164 45.566 16.4008 45.566 15.1312V9.17773H48.1919V14.8105C48.1919 15.5188 48.3456 16.0466 48.653 16.3941C48.9737 16.7282 49.4347 16.8952 50.0361 16.8952C50.3969 16.8952 50.711 16.8217 50.9782 16.6747C51.2589 16.5144 51.4927 16.3072 51.6798 16.0533C51.8803 15.786 52.0273 15.4787 52.1208 15.1312C52.2277 14.7704 52.2812 14.3895 52.2812 13.9886V9.17773H54.9071V19H52.4416V17.7171ZM59.6436 11.4228H57.9197V9.17773H59.6436V6.17091H62.2695V9.17773H64.675V11.4228H62.2695V15.2315C62.2695 15.4586 62.2896 15.6725 62.3297 15.8729C62.3831 16.06 62.4767 16.2204 62.6103 16.354C62.7974 16.5678 63.0647 16.6747 63.4121 16.6747C63.6393 16.6747 63.8197 16.6547 63.9534 16.6146C64.087 16.5611 64.2139 16.4943 64.3342 16.4141L65.0759 18.7194C64.7685 18.8664 64.4344 18.9733 64.0736 19.0401C63.7262 19.1203 63.3386 19.1604 62.911 19.1604C62.4165 19.1604 61.9689 19.0869 61.5679 18.9399C61.1804 18.7795 60.853 18.5657 60.5857 18.2984C59.9576 17.697 59.6436 16.8418 59.6436 15.7326V11.4228ZM74.7088 17.7171H74.5484C74.241 18.2115 73.8268 18.6058 73.3056 18.8998C72.7844 19.1804 72.1897 19.3207 71.5215 19.3207C70.2787 19.3207 69.3499 18.9399 68.7352 18.1781C68.1338 17.4164 67.8332 16.4008 67.8332 15.1312V9.17773H70.4591V14.8105C70.4591 15.5188 70.6128 16.0466 70.9202 16.3941C71.2409 16.7282 71.7019 16.8952 72.3033 16.8952C72.6641 16.8952 72.9782 16.8217 73.2454 16.6747C73.5261 16.5144 73.7599 16.3072 73.947 16.0533C74.1475 15.786 74.2945 15.4787 74.388 15.1312C74.4949 14.7704 74.5484 14.3895 74.5484 13.9886V9.17773H77.1743V19H74.7088V17.7171ZM80.7304 9.17773H83.196V10.5408H83.3564C83.4767 10.3003 83.637 10.0798 83.8375 9.87932C84.0379 9.67886 84.2584 9.50514 84.499 9.35814C84.7529 9.21114 85.0202 9.09755 85.3008 9.01736C85.5948 8.93718 85.8821 8.89709 86.1628 8.89709C86.5102 8.89709 86.8042 8.9305 87.0448 8.99732C87.2987 9.06414 87.5125 9.151 87.6862 9.25791L86.9846 11.6433C86.8243 11.5631 86.6439 11.503 86.4434 11.4629C86.2563 11.4095 86.0224 11.3827 85.7418 11.3827C85.381 11.3827 85.0536 11.4562 84.7596 11.6032C84.4656 11.7369 84.2117 11.9306 83.9979 12.1845C83.7974 12.4385 83.637 12.7391 83.5168 13.0866C83.4099 13.4207 83.3564 13.7882 83.3564 14.1891V19H80.7304V9.17773ZM98.8944 16.6346C98.44 17.4365 97.8253 18.0846 97.0502 18.579C96.2885 19.0735 95.353 19.3207 94.2438 19.3207C93.4955 19.3207 92.8005 19.1938 92.1591 18.9399C91.531 18.6726 90.9831 18.3051 90.5154 17.8374C90.0476 17.3696 89.6801 16.8217 89.4129 16.1936C89.159 15.5522 89.032 14.8506 89.032 14.0889C89.032 13.3806 89.159 12.7124 89.4129 12.0843C89.6668 11.4429 90.0209 10.8883 90.4753 10.4205C90.9296 9.93945 91.4642 9.55859 92.0789 9.27795C92.707 8.99732 93.3952 8.857 94.1436 8.857C94.932 8.857 95.6336 8.99064 96.2484 9.25791C96.8631 9.51182 97.3776 9.87264 97.7919 10.3404C98.2061 10.7947 98.5202 11.336 98.734 11.964C98.9478 12.5921 99.0547 13.2737 99.0547 14.0087C99.0547 14.1022 99.0547 14.1824 99.0547 14.2492C99.0414 14.3294 99.0347 14.4029 99.0347 14.4697C99.0213 14.5365 99.0146 14.61 99.0146 14.6902H91.6179C91.6713 15.0911 91.7782 15.4386 91.9386 15.7326C92.1123 16.0132 92.3195 16.2538 92.56 16.4542C92.8139 16.6413 93.0879 16.7816 93.3819 16.8752C93.6759 16.9554 93.9765 16.9955 94.2839 16.9955C94.8853 16.9955 95.3797 16.8618 95.7673 16.5945C96.1682 16.3139 96.4822 15.9665 96.7094 15.5522L98.8944 16.6346ZM96.509 12.826C96.4956 12.6523 96.4355 12.4585 96.3285 12.2447C96.235 12.0309 96.088 11.8304 95.8875 11.6433C95.7005 11.4562 95.4599 11.3025 95.1659 11.1823C94.8853 11.062 94.5445 11.0019 94.1436 11.0019C93.5823 11.0019 93.0879 11.1622 92.6602 11.483C92.2326 11.8037 91.9319 12.2514 91.7582 12.826H96.509ZM106.749 19.3207C106.134 19.3207 105.546 19.2339 104.985 19.0601C104.424 18.8864 103.909 18.6258 103.442 18.2784C102.974 17.9309 102.566 17.51 102.219 17.0155C101.871 16.5077 101.597 15.9197 101.397 15.2515L103.943 14.2492C104.13 14.9709 104.457 15.5722 104.925 16.0533C105.393 16.521 106.007 16.7549 106.769 16.7549C107.05 16.7549 107.317 16.7215 107.571 16.6547C107.838 16.5745 108.072 16.4676 108.273 16.334C108.486 16.187 108.653 16.0065 108.774 15.7927C108.894 15.5789 108.954 15.3317 108.954 15.051C108.954 14.7838 108.907 14.5432 108.814 14.3294C108.72 14.1156 108.56 13.9151 108.333 13.728C108.119 13.541 107.832 13.3605 107.471 13.1868C107.123 13.0131 106.689 12.8327 106.168 12.6456L105.286 12.3249C104.898 12.1912 104.504 12.0108 104.103 11.7836C103.716 11.5565 103.361 11.2825 103.041 10.9618C102.72 10.641 102.453 10.2669 102.239 9.83923C102.038 9.39823 101.938 8.90377 101.938 8.35586C101.938 7.79459 102.045 7.27341 102.259 6.79232C102.486 6.29786 102.8 5.87023 103.201 5.50941C103.615 5.13523 104.103 4.84791 104.664 4.64745C105.239 4.43364 105.874 4.32673 106.569 4.32673C107.29 4.32673 107.912 4.42695 108.433 4.62741C108.967 4.8145 109.415 5.06173 109.776 5.36909C110.15 5.66309 110.451 5.9905 110.678 6.35132C110.905 6.71214 111.072 7.05291 111.179 7.37364L108.794 8.37591C108.66 7.975 108.413 7.61418 108.052 7.29345C107.705 6.97273 107.224 6.81236 106.609 6.81236C106.021 6.81236 105.533 6.95268 105.145 7.23332C104.758 7.50059 104.564 7.85473 104.564 8.29573C104.564 8.72336 104.751 9.09086 105.125 9.39823C105.5 9.69223 106.094 9.97955 106.909 10.2602L107.812 10.5609C108.386 10.7613 108.907 10.9952 109.375 11.2625C109.856 11.5164 110.264 11.8237 110.598 12.1845C110.945 12.5454 111.206 12.9596 111.38 13.4274C111.567 13.8817 111.66 14.4096 111.66 15.011C111.66 15.7593 111.507 16.4075 111.199 16.9554C110.905 17.4899 110.524 17.9309 110.057 18.2784C109.589 18.6258 109.061 18.8864 108.473 19.0601C107.885 19.2339 107.31 19.3207 106.749 19.3207ZM114.795 9.17773H117.261V10.3604H117.421C117.661 9.94614 118.036 9.592 118.543 9.298C119.051 9.004 119.679 8.857 120.428 8.857C121.056 8.857 121.65 8.99064 122.212 9.25791C122.786 9.51182 123.288 9.87264 123.715 10.3404C124.156 10.7947 124.504 11.3426 124.758 11.9841C125.011 12.6255 125.138 13.3271 125.138 14.0889C125.138 14.8506 125.011 15.5522 124.758 16.1936C124.504 16.8351 124.156 17.3897 123.715 17.8574C123.288 18.3118 122.786 18.6726 122.212 18.9399C121.65 19.1938 121.056 19.3207 120.428 19.3207C119.679 19.3207 119.051 19.1737 118.543 18.8797C118.036 18.5857 117.661 18.2316 117.421 17.8173H117.261L117.421 19.2205V23.3298H114.795V9.17773ZM119.886 16.8952C120.234 16.8952 120.561 16.8284 120.869 16.6948C121.189 16.5611 121.47 16.374 121.711 16.1335C121.951 15.893 122.145 15.599 122.292 15.2515C122.439 14.904 122.512 14.5165 122.512 14.0889C122.512 13.6612 122.439 13.2737 122.292 12.9262C122.145 12.5788 121.951 12.2848 121.711 12.0442C121.47 11.8037 121.189 11.6166 120.869 11.483C120.561 11.3493 120.234 11.2825 119.886 11.2825C119.539 11.2825 119.205 11.3493 118.884 11.483C118.577 11.6032 118.303 11.7836 118.062 12.0242C117.822 12.2647 117.628 12.5587 117.481 12.9062C117.334 13.2536 117.261 13.6479 117.261 14.0889C117.261 14.5299 117.334 14.9241 117.481 15.2715C117.628 15.619 117.822 15.913 118.062 16.1535C118.303 16.3941 118.577 16.5812 118.884 16.7148C119.205 16.8351 119.539 16.8952 119.886 16.8952ZM127.927 4.64745H130.553V8.67659L130.393 10.4606H130.553C130.834 9.99291 131.235 9.61205 131.756 9.31805C132.29 9.01068 132.885 8.857 133.54 8.857C134.809 8.857 135.745 9.23118 136.346 9.97955C136.961 10.7279 137.268 11.7502 137.268 13.0465V19H134.642V13.3672C134.642 12.6857 134.482 12.1712 134.161 11.8237C133.841 11.4629 133.393 11.2825 132.818 11.2825C132.457 11.2825 132.137 11.3627 131.856 11.523C131.575 11.67 131.335 11.8772 131.134 12.1445C130.947 12.4117 130.8 12.7258 130.693 13.0866C130.6 13.434 130.553 13.8082 130.553 14.2091V19H127.927V4.64745ZM150.045 16.6346C149.591 17.4365 148.976 18.0846 148.201 18.579C147.439 19.0735 146.504 19.3207 145.395 19.3207C144.646 19.3207 143.952 19.1938 143.31 18.9399C142.682 18.6726 142.134 18.3051 141.666 17.8374C141.199 17.3696 140.831 16.8217 140.564 16.1936C140.31 15.5522 140.183 14.8506 140.183 14.0889C140.183 13.3806 140.31 12.7124 140.564 12.0843C140.818 11.4429 141.172 10.8883 141.626 10.4205C142.081 9.93945 142.615 9.55859 143.23 9.27795C143.858 8.99732 144.546 8.857 145.295 8.857C146.083 8.857 146.785 8.99064 147.399 9.25791C148.014 9.51182 148.529 9.87264 148.943 10.3404C149.357 10.7947 149.671 11.336 149.885 11.964C150.099 12.5921 150.206 13.2737 150.206 14.0087C150.206 14.1022 150.206 14.1824 150.206 14.2492C150.192 14.3294 150.186 14.4029 150.186 14.4697C150.172 14.5365 150.166 14.61 150.166 14.6902H142.769C142.822 15.0911 142.929 15.4386 143.09 15.7326C143.263 16.0132 143.47 16.2538 143.711 16.4542C143.965 16.6413 144.239 16.7816 144.533 16.8752C144.827 16.9554 145.128 16.9955 145.435 16.9955C146.036 16.9955 146.531 16.8618 146.918 16.5945C147.319 16.3139 147.633 15.9665 147.86 15.5522L150.045 16.6346ZM147.66 12.826C147.647 12.6523 147.586 12.4585 147.48 12.2447C147.386 12.0309 147.239 11.8304 147.039 11.6433C146.851 11.4562 146.611 11.3025 146.317 11.1823C146.036 11.062 145.695 11.0019 145.295 11.0019C144.733 11.0019 144.239 11.1622 143.811 11.483C143.384 11.8037 143.083 12.2514 142.909 12.826H147.66ZM153.189 9.17773H155.655V10.5408H155.815C155.936 10.3003 156.096 10.0798 156.296 9.87932C156.497 9.67886 156.717 9.50514 156.958 9.35814C157.212 9.21114 157.479 9.09755 157.76 9.01736C158.054 8.93718 158.341 8.89709 158.622 8.89709C158.969 8.89709 159.263 8.9305 159.504 8.99732C159.758 9.06414 159.971 9.151 160.145 9.25791L159.444 11.6433C159.283 11.5631 159.103 11.503 158.902 11.4629C158.715 11.4095 158.481 11.3827 158.201 11.3827C157.84 11.3827 157.513 11.4562 157.219 11.6032C156.925 11.7369 156.671 11.9306 156.457 12.1845C156.256 12.4385 156.096 12.7391 155.976 13.0866C155.869 13.4207 155.815 13.7882 155.815 14.1891V19H153.189V9.17773ZM171.353 16.6346C170.899 17.4365 170.284 18.0846 169.509 18.579C168.747 19.0735 167.812 19.3207 166.703 19.3207C165.954 19.3207 165.26 19.1938 164.618 18.9399C163.99 18.6726 163.442 18.3051 162.974 17.8374C162.507 17.3696 162.139 16.8217 161.872 16.1936C161.618 15.5522 161.491 14.8506 161.491 14.0889C161.491 13.3806 161.618 12.7124 161.872 12.0843C162.126 11.4429 162.48 10.8883 162.934 10.4205C163.389 9.93945 163.923 9.55859 164.538 9.27795C165.166 8.99732 165.854 8.857 166.603 8.857C167.391 8.857 168.093 8.99064 168.707 9.25791C169.322 9.51182 169.837 9.87264 170.251 10.3404C170.665 10.7947 170.979 11.336 171.193 11.964C171.407 12.5921 171.514 13.2737 171.514 14.0087C171.514 14.1022 171.514 14.1824 171.514 14.2492C171.5 14.3294 171.494 14.4029 171.494 14.4697C171.48 14.5365 171.474 14.61 171.474 14.6902H164.077C164.13 15.0911 164.237 15.4386 164.398 15.7326C164.571 16.0132 164.778 16.2538 165.019 16.4542C165.273 16.6413 165.547 16.7816 165.841 16.8752C166.135 16.9554 166.436 16.9955 166.743 16.9955C167.344 16.9955 167.839 16.8618 168.226 16.5945C168.627 16.3139 168.941 15.9665 169.168 15.5522L171.353 16.6346ZM168.968 12.826C168.955 12.6523 168.894 12.4585 168.788 12.2447C168.694 12.0309 168.547 11.8304 168.347 11.6433C168.159 11.4562 167.919 11.3025 167.625 11.1823C167.344 11.062 167.003 11.0019 166.603 11.0019C166.041 11.0019 165.547 11.1622 165.119 11.483C164.692 11.8037 164.391 12.2514 164.217 12.826H168.968Z" fill="white"/>
</svg>
